<svg xmlns="http://www.w3.org/2000/svg" style="display:none">
<symbol id="icon-envelope" viewBox="0 0 490 490">

<path d="M479.574,78.191H10.425c-0.071,0-0.141,0.007-0.211,0.008l0.001,0.003C4.556,78.315,0,82.925,0,88.617v312.766
	c0,5.762,4.669,10.426,10.425,10.426h469.149c5.758,0,10.426-4.664,10.426-10.426V88.617C490,82.854,485.332,78.191,479.574,78.191z
	 M454.407,99.043l-138.581,138.58c-0.002,0.002-0.004,0.003-0.006,0.005L245,308.449l-70.82-70.821
	c-0.004-0.004-0.008-0.007-0.013-0.012L35.594,99.043H454.407z M20.851,113.784l131.215,131.215L20.851,376.215V113.784z
	 M35.594,390.957l131.215-131.216l70.821,70.821c3.629,3.629,9.303,5.439,14.743,0l70.82-70.82l131.215,131.215H35.594z
	 M469.149,376.213L337.935,244.999l131.214-131.214V376.213z"/>

</symbol>
<symbol id="icon-facebook-bold" viewBox="0 0 256 256">

  <path d="M236,128A108,108,0,1,0,127.97412,235.99951L128,236.001l.02588-.00147A108.1216,108.1216,0,0,0,236,128Zm-96,83.12891V156.001h20a12,12,0,0,0,0-24H140v-20a12.01375,12.01375,0,0,1,12-12h16a12,12,0,0,0,0-24H152a36.04061,36.04061,0,0,0-36,36v20H96a12,12,0,0,0,0,24h20v55.12793a84,84,0,1,1,24,0Z"/>

</symbol>
<symbol id="icon-telegram" viewBox="0 0 189.473 189.473">

<g>
	<path d="M152.531,179.476c-1.48,0-2.95-0.438-4.211-1.293l-47.641-32.316l-25.552,18.386c-2.004,1.441-4.587,1.804-6.914,0.972
		c-2.324-0.834-4.089-2.759-4.719-5.146l-12.83-48.622L4.821,93.928c-2.886-1.104-4.8-3.865-4.821-6.955
		c-0.021-3.09,1.855-5.877,4.727-7.02l174.312-69.36c0.791-0.336,1.628-0.53,2.472-0.582c0.302-0.018,0.605-0.018,0.906-0.001
		c1.748,0.104,3.465,0.816,4.805,2.13c0.139,0.136,0.271,0.275,0.396,0.42c1.11,1.268,1.72,2.814,1.835,4.389
		c0.028,0.396,0.026,0.797-0.009,1.198c-0.024,0.286-0.065,0.571-0.123,0.854L159.898,173.38c-0.473,2.48-2.161,4.556-4.493,5.523
		C154.48,179.287,153.503,179.476,152.531,179.476z M104.862,130.579l42.437,28.785L170.193,39.24l-82.687,79.566l17.156,11.638
		C104.731,130.487,104.797,130.533,104.862,130.579z M69.535,124.178l5.682,21.53l12.242-8.809l-16.03-10.874
		C70.684,125.521,70.046,124.893,69.535,124.178z M28.136,86.782l31.478,12.035c2.255,0.862,3.957,2.758,4.573,5.092l3.992,15.129
		c0.183-1.745,0.974-3.387,2.259-4.624L149.227,38.6L28.136,86.782z"/>
</g>

</symbol>
<symbol id="icon-whatsapp" viewBox="0 0 30.667 30.667">

<g>
	<path d="M30.667,14.939c0,8.25-6.74,14.938-15.056,14.938c-2.639,0-5.118-0.675-7.276-1.857L0,30.667l2.717-8.017
		c-1.37-2.25-2.159-4.892-2.159-7.712C0.559,6.688,7.297,0,15.613,0C23.928,0.002,30.667,6.689,30.667,14.939z M15.61,2.382
		c-6.979,0-12.656,5.634-12.656,12.56c0,2.748,0.896,5.292,2.411,7.362l-1.58,4.663l4.862-1.545c2,1.312,4.393,2.076,6.963,2.076
		c6.979,0,12.658-5.633,12.658-12.559C28.27,8.016,22.59,2.382,15.61,2.382z M23.214,18.38c-0.094-0.151-0.34-0.243-0.708-0.427
		c-0.367-0.184-2.184-1.069-2.521-1.189c-0.34-0.123-0.586-0.185-0.832,0.182c-0.243,0.367-0.951,1.191-1.168,1.437
		c-0.215,0.245-0.43,0.276-0.799,0.095c-0.369-0.186-1.559-0.57-2.969-1.817c-1.097-0.972-1.838-2.169-2.052-2.536
		c-0.217-0.366-0.022-0.564,0.161-0.746c0.165-0.165,0.369-0.428,0.554-0.643c0.185-0.213,0.246-0.364,0.369-0.609
		c0.121-0.245,0.06-0.458-0.031-0.643c-0.092-0.184-0.829-1.984-1.138-2.717c-0.307-0.732-0.614-0.611-0.83-0.611
		c-0.215,0-0.461-0.03-0.707-0.03S9.897,8.215,9.56,8.582s-1.291,1.252-1.291,3.054c0,1.804,1.321,3.543,1.506,3.787
		c0.186,0.243,2.554,4.062,6.305,5.528c3.753,1.465,3.753,0.976,4.429,0.914c0.678-0.062,2.184-0.885,2.49-1.739
		C23.307,19.268,23.307,18.533,23.214,18.38z"/>
</g>

</symbol>
</svg>